# xmcd
#
# Track frame offsets:
#	150
#	10205
#	25573
#	42472
#	56695
#	63994
#	71462
#	87410
#	99115
#	121543
#	130628
#	146069
#	154668
#	166256
#	183830
#	207239
#	224379
#	234260
#	242720
#	254127
#
# Disc length: 3662 seconds
#
# Revision: 1
# Processed by: cddbd v1.5.1PL0 Copyright (c) Steve Scherf et al.
# Submitted via: audiograbber 1.82.01
#
DISCID=0a0e4c14
DTITLE=Андрей Баранов - Мамакабо
DYEAR=2001
DGENRE=Instrumental
TTITLE0=Санчо Панса
TTITLE1=Флажолетная Санта Каталина
TTITLE2=Листьями пошуршать
TTITLE3=Прогулка по Парижу
TTITLE4=Вальс Шоша
TTITLE5=Три Нешвилл
TTITLE6=Рыжая Африка
TTITLE7=Блюз для укулеле с саксофоном
TTITLE8=Проводы друга
TTITLE9=Рэйтайм
TTITLE10=Босса Мария
TTITLE11=Кантри-Шмантри
TTITLE12=Венесуэльский вальс
TTITLE13=Поезд Блюз
TTITLE14=Ангел Провиденсии
TTITLE15=Песня про Егора
TTITLE16=Коматозный чечеточник
TTITLE17=Марина Бонита
TTITLE18=Марш газовчиков-буровичков
TTITLE19=МАМАКАБО
EXTD=
EXTT0=
EXTT1=
EXTT2=
EXTT3=
EXTT4=
EXTT5=
EXTT6=
EXTT7=
EXTT8=
EXTT9=
EXTT10=
EXTT11=
EXTT12=
EXTT13=
EXTT14=
EXTT15=
EXTT16=
EXTT17=
EXTT18=
EXTT19=
PLAYORDER=
